<?xml version="1.0" encoding="UTF-8" standalone="no"?>
<!DOCTYPE svg PUBLIC "-//W3C//DTD SVG 1.1//EN" "http://www.w3.org/Graphics/SVG/1.1/DTD/svg11.dtd">
<svg width="100%" height="100%" viewBox="0 0 901 422" version="1.1" xmlns="http://www.w3.org/2000/svg" xmlns:xlink="http://www.w3.org/1999/xlink" xml:space="preserve" xmlns:serif="http://www.serif.com/" style="fill-rule:evenodd;clip-rule:evenodd;stroke-linejoin:round;stroke-miterlimit:2;">
    <g transform="matrix(1,0,0,1,-78.7222,-48.6346)">
        <g transform="matrix(0.551104,0,0,0.459697,-81.3438,-275.915)">
            <g transform="matrix(1,0,0,-1,640.715,722.706)">
                <path d="M0,-323.121C-2.477,-321.211 -4.137,-318.352 -4.559,-315.25C-5.008,-311.949 -4.016,-308.984 -2.168,-306.289C-0.051,-303.203 2.102,-300.121 4.551,-297.285C7.184,-294.242 10.095,-291.442 13.102,-288.769C13.116,-288.755 13.13,-288.741 13.144,-288.727C13.062,-288.799 12.98,-288.87 12.898,-288.941C12.982,-288.869 13.065,-288.796 13.148,-288.723C13.151,-288.72 13.153,-288.718 13.155,-288.716C13.114,-288.752 13.073,-288.788 13.031,-288.824C13.074,-288.787 13.117,-288.749 13.16,-288.711C13.392,-288.48 13.633,-288.26 13.88,-288.052C14.329,-287.593 14.813,-287.168 15.324,-286.78C15.484,-286.635 15.648,-286.494 15.815,-286.358C15.981,-286.201 16.152,-286.049 16.328,-285.9C17.012,-285.173 17.773,-284.511 18.595,-283.928C18.908,-283.651 19.227,-283.375 19.547,-283.094C19.6,-283.047 19.653,-283.002 19.707,-282.956C19.788,-282.884 19.869,-282.811 19.951,-282.738C20.214,-282.485 20.488,-282.244 20.772,-282.017C20.841,-281.955 20.911,-281.893 20.98,-281.832C20.981,-281.832 20.981,-281.831 20.982,-281.831C21.554,-281.218 22.177,-280.66 22.84,-280.162C23.004,-280.02 23.171,-279.883 23.344,-279.75C23.348,-279.747 23.352,-279.744 23.356,-279.741C23.409,-279.694 23.462,-279.647 23.516,-279.6C23.484,-279.628 23.453,-279.655 23.421,-279.683C23.481,-279.631 23.54,-279.579 23.6,-279.527C23.634,-279.497 23.668,-279.468 23.702,-279.439C23.734,-279.41 23.766,-279.382 23.798,-279.353C28.129,-275.563 32.608,-271.93 37.016,-268.23C40.961,-264.918 44.922,-261.629 48.875,-258.328C56.303,-252.125 63.519,-245.682 70.789,-239.301C76.656,-233.586 82.508,-227.848 88.363,-222.121C91.082,-219.461 93.621,-216.582 96.238,-213.82C98.98,-210.933 101.724,-208.052 104.459,-205.158C104.498,-205.113 104.537,-205.068 104.577,-205.023C104.742,-204.832 104.913,-204.647 105.088,-204.469C105.279,-204.235 105.478,-204.009 105.685,-203.792C105.728,-203.743 105.771,-203.693 105.815,-203.644C106.077,-203.312 106.354,-202.997 106.646,-202.699C106.819,-202.503 106.991,-202.306 107.164,-202.11C107.421,-201.785 107.697,-201.472 107.991,-201.172C108.011,-201.149 108.031,-201.127 108.051,-201.104C108.087,-201.061 108.123,-201.019 108.16,-200.976C108.514,-200.575 108.859,-200.177 109.208,-199.789C109.868,-198.96 110.61,-198.191 111.312,-197.398C111.32,-197.389 111.328,-197.38 111.336,-197.371C112.167,-196.426 112.996,-195.484 113.827,-194.543C113.863,-194.5 113.9,-194.457 113.938,-194.414C114.06,-194.275 114.181,-194.137 114.301,-193.998C114.566,-193.66 114.848,-193.338 115.145,-193.033C115.338,-192.816 115.533,-192.601 115.73,-192.39C116.244,-191.775 116.789,-191.179 117.328,-190.566C117.361,-190.529 117.394,-190.492 117.427,-190.456C117.473,-190.401 117.519,-190.347 117.566,-190.293C117.619,-190.233 117.671,-190.175 117.723,-190.116C117.751,-190.084 117.779,-190.052 117.807,-190.021C118.025,-189.741 118.255,-189.473 118.495,-189.217C118.682,-188.997 118.875,-188.784 119.075,-188.58C118.954,-188.717 118.833,-188.855 118.712,-188.993C118.713,-188.993 118.713,-188.992 118.713,-188.992C118.834,-188.854 118.955,-188.716 119.076,-188.578C119.077,-188.578 119.077,-188.578 119.078,-188.577C118.962,-188.709 118.846,-188.841 118.731,-188.973C118.847,-188.84 118.963,-188.708 119.08,-188.575C119.087,-188.567 119.095,-188.559 119.103,-188.552C119.139,-188.509 119.176,-188.467 119.213,-188.424C119.247,-188.385 119.282,-188.346 119.316,-188.307C119.257,-188.374 119.199,-188.441 119.141,-188.508C119.383,-188.231 119.627,-187.962 119.873,-187.701C120.018,-187.523 120.166,-187.346 120.318,-187.169C120.4,-187.076 120.481,-186.983 120.563,-186.891C120.488,-186.976 120.412,-187.061 120.337,-187.147C120.388,-187.087 120.44,-187.028 120.492,-186.969C120.257,-187.237 120.02,-187.506 119.784,-187.776C119.761,-187.801 119.739,-187.826 119.716,-187.852C121.019,-186.343 122.217,-184.723 123.465,-183.172C125.945,-180.09 128.426,-177.004 130.906,-173.918C133.824,-170.285 136.559,-166.578 139.293,-162.801C142.273,-158.683 145.324,-154.609 148.191,-150.41C151.604,-145.409 155.014,-140.408 158.429,-135.413C164.626,-125.914 170.784,-116.412 176.801,-106.801C182.594,-97.555 188.398,-88.32 194.25,-79.113C200.266,-69.64 206.098,-60.062 211.875,-50.449C217.219,-41.551 222.734,-32.75 227.902,-23.746C230.116,-19.885 232.322,-16.028 234.411,-12.097C235.338,-10.212 236.226,-8.319 236.949,-6.34C239.195,-0.199 246.879,2.5 252.676,0.047C255.531,-1.16 257.856,-3.484 259.063,-6.34C260.359,-9.406 260.188,-12.605 259.063,-15.68C257.109,-21.019 254.246,-26.082 251.418,-31C248.805,-35.539 246.223,-40.101 243.5,-44.578C237.613,-54.258 231.766,-63.961 225.926,-73.668C220.469,-82.738 214.672,-91.598 209.043,-100.562C202.801,-110.504 196.574,-120.453 190.332,-130.398C184.328,-139.969 177.949,-149.316 171.582,-158.644C168.856,-162.633 166.148,-166.621 163.316,-170.531C161.004,-173.723 158.691,-176.918 156.379,-180.109C155.305,-181.594 154.281,-183.14 153.133,-184.57C150.363,-188.012 147.598,-191.457 144.828,-194.898C142.704,-197.54 140.635,-200.242 138.432,-202.824C138.403,-202.862 138.374,-202.901 138.345,-202.938C138.369,-202.911 138.394,-202.883 138.418,-202.855C138.394,-202.883 138.369,-202.911 138.345,-202.939L138.338,-202.948C138.4,-202.878 138.461,-202.808 138.523,-202.738C138.461,-202.808 138.399,-202.878 138.337,-202.948C138.033,-203.342 137.708,-203.711 137.365,-204.054C137.321,-204.104 137.278,-204.153 137.234,-204.203C137.269,-204.163 137.303,-204.124 137.338,-204.084C137.216,-204.223 137.094,-204.361 136.973,-204.5C136.763,-204.768 136.543,-205.025 136.313,-205.271C136.102,-205.523 135.881,-205.766 135.652,-205.998C135.496,-206.176 135.339,-206.354 135.183,-206.532C134.913,-206.873 134.623,-207.202 134.313,-207.517C134.268,-207.568 134.223,-207.619 134.179,-207.67C133.755,-208.178 133.304,-208.666 132.856,-209.176C132.845,-209.188 132.834,-209.2 132.823,-209.212C131.981,-210.169 131.138,-211.126 130.295,-212.084C130.028,-212.424 129.744,-212.746 129.446,-213.049C128.971,-213.59 128.495,-214.131 128.019,-214.672C127.97,-214.728 127.919,-214.784 127.869,-214.84C127.581,-215.169 127.297,-215.495 127.01,-215.814C126.377,-216.602 125.673,-217.336 125.004,-218.094C124.956,-218.148 124.907,-218.202 124.857,-218.255C124.748,-218.382 124.637,-218.509 124.525,-218.636C124.375,-218.827 124.22,-219.014 124.059,-219.195C123.808,-219.507 123.544,-219.808 123.266,-220.096C123.177,-220.196 123.086,-220.294 122.995,-220.39C122.71,-220.749 122.408,-221.087 122.092,-221.403C122.322,-221.14 122.552,-220.878 122.781,-220.617C122.593,-220.833 122.403,-221.047 122.213,-221.262C122.174,-221.307 122.134,-221.353 122.095,-221.398C122.091,-221.402 122.088,-221.406 122.084,-221.41L122.083,-221.411C122.079,-221.416 122.075,-221.421 122.07,-221.426C122.016,-221.487 121.961,-221.548 121.906,-221.607C117.941,-226.054 113.697,-230.276 109.598,-234.598C106.57,-237.789 103.5,-240.883 100.352,-243.961C97.5,-246.75 94.645,-249.539 91.793,-252.332C90.074,-254.012 88.395,-255.726 86.586,-257.308C81.832,-261.473 77.086,-265.652 72.336,-269.824C66.664,-274.805 60.832,-279.59 55.035,-284.426C49.777,-288.819 44.436,-293.129 39.277,-297.637C38.737,-298.206 38.145,-298.729 37.513,-299.197C37.432,-299.266 37.351,-299.335 37.269,-299.402C37.163,-299.495 37.056,-299.589 36.949,-299.684C36.887,-299.738 36.826,-299.793 36.764,-299.847C35.868,-300.748 34.856,-301.554 33.893,-302.378C33.843,-302.425 33.792,-302.472 33.741,-302.518C33.158,-303.157 32.511,-303.751 31.817,-304.287C31.429,-304.639 31.022,-304.969 30.599,-305.274C30.53,-305.334 30.462,-305.394 30.395,-305.453C30.462,-305.394 30.53,-305.334 30.598,-305.274C30.597,-305.275 30.594,-305.277 30.593,-305.278C30.494,-305.365 30.395,-305.452 30.297,-305.539C30.01,-305.79 29.726,-306.035 29.44,-306.272C29.222,-306.478 28.999,-306.681 28.769,-306.883C28.813,-306.845 28.856,-306.807 28.899,-306.769C29.086,-306.604 29.274,-306.439 29.462,-306.274C29.42,-306.31 29.379,-306.347 29.338,-306.383C29.394,-306.334 29.45,-306.285 29.506,-306.235C29.566,-306.182 29.627,-306.129 29.687,-306.076C29.843,-305.939 29.999,-305.801 30.155,-305.664C30.014,-305.789 29.872,-305.914 29.731,-306.038C29.772,-306.002 29.814,-305.966 29.856,-305.93C27.508,-308.102 25.16,-310.264 22.991,-312.611C20.77,-315.259 18.783,-318.105 16.832,-320.957C15.102,-323.477 11.926,-325.109 8.961,-325.512C8.426,-325.585 7.887,-325.621 7.351,-325.621C4.71,-325.621 2.1,-324.748 0,-323.121Z" style="fill-rule:nonzero;"/>
            </g>
            <g transform="matrix(1,0,0,-1,890.835,730.957)">
                <path d="M0,-38.891C-2.855,-37.68 -5.176,-35.36 -6.383,-32.504C-8.871,-26.626 -6.094,-19.126 0,-16.774C3.973,-15.243 7.902,-13.661 12.027,-12.583C16.746,-11.348 21.598,-10.821 26.441,-10.395C30.504,-10.043 34.602,-9.95 38.672,-9.739C44.793,-9.422 50.93,-9.372 57.059,-9.251C63.211,-9.129 69.367,-9.067 75.52,-8.868C82.223,-8.649 88.922,-8.399 95.629,-8.254C109.27,-7.958 122.914,-7.751 136.555,-7.313C149.934,-6.879 163.316,-6.633 176.699,-6.387C189.563,-6.145 202.418,-5.664 215.269,-5.001C228.356,-4.325 241.434,-3.497 254.519,-2.829C261.555,-2.469 268.602,-1.946 275.645,-1.758C282.992,-1.559 290.344,-1.368 297.695,-1.172C304.57,-0.993 311.449,-0.895 318.328,-0.758C325.023,-0.622 331.723,-0.36 338.418,-0.157C364.676,0.648 390.965,0.523 417.227,0.554C443.523,0.585 469.816,0.574 496.109,0.574L574.699,0.574C586.676,0.574 598.707,0.917 610.652,-0.083C613.707,-0.336 616.684,-2.258 618.523,-4.637C620.481,-7.168 621.348,-10.43 620.914,-13.598C620.492,-16.7 618.832,-19.559 616.359,-21.469C613.734,-23.501 610.645,-24.133 607.398,-23.86C607.161,-23.84 606.923,-23.821 606.685,-23.803C600.821,-23.454 594.957,-23.426 589.082,-23.426L529.367,-23.426C502.184,-23.426 475,-23.43 447.82,-23.43C421.781,-23.43 395.746,-23.418 369.707,-23.637C356.766,-23.747 343.824,-23.993 330.887,-24.387C318.066,-24.774 305.242,-24.973 292.422,-25.313C285.883,-25.485 279.332,-25.563 272.801,-25.895C265.945,-26.247 259.086,-26.555 252.234,-26.95C237.922,-27.782 223.609,-28.563 209.293,-29.309C195.836,-30.012 182.363,-30.278 168.895,-30.532C155.711,-30.778 142.535,-31.118 129.356,-31.543C116.766,-31.95 104.164,-31.93 91.574,-32.34C78.535,-32.766 65.5,-33.063 52.453,-33.352C48.625,-33.434 44.781,-33.422 40.957,-33.622C36.978,-33.828 33.001,-34.031 29.022,-34.237C25.94,-34.514 22.873,-34.842 19.828,-35.395C18.198,-35.77 16.59,-36.2 14.996,-36.705C13.104,-37.413 11.227,-38.163 9.344,-38.891C7.792,-39.488 6.177,-39.809 4.565,-39.809C3.022,-39.809 1.482,-39.516 0,-38.891Z" style="fill-rule:nonzero;"/>
            </g>
            <g transform="matrix(1,0,0,-1,1483.7,742.096)">
                <path d="M0,-629.648C0,-602.453 -0.008,-575.262 0.008,-548.066C0.016,-533.664 0.035,-519.258 0.082,-504.852C0.102,-498.414 0.168,-491.973 0.223,-485.531C0.277,-479.266 0.332,-472.984 0.574,-466.723C0.795,-460.964 0.895,-455.186 1.252,-449.434C1.252,-449.428 1.252,-449.421 1.252,-449.415C1.246,-449.496 1.24,-449.578 1.234,-449.66C1.24,-449.576 1.246,-449.492 1.252,-449.408C1.251,-448.935 1.279,-448.456 1.337,-447.974C1.374,-447.193 1.45,-446.412 1.504,-445.636C1.55,-444.681 1.634,-443.718 1.699,-442.746C1.844,-440.57 1.992,-438.395 2.137,-436.223C2.166,-435.779 2.187,-435.335 2.213,-434.892C2.221,-434.65 2.237,-434.41 2.26,-434.17C2.265,-434.096 2.271,-434.022 2.278,-433.947C2.317,-433.223 2.386,-432.498 2.434,-431.777C2.398,-432.32 2.359,-432.863 2.324,-433.406C2.334,-433.264 2.344,-433.123 2.355,-432.983C2.355,-432.978 2.355,-432.973 2.355,-432.969C2.809,-426.188 3.316,-419.402 3.824,-412.621C4.832,-399.234 5.832,-385.848 6.785,-372.461C7.582,-361.315 8.367,-350.17 9.134,-339.021C9.531,-332.839 9.935,-326.657 10.356,-320.478C11.085,-307.407 12.024,-294.324 12.191,-281.23C12.379,-266.566 12.457,-251.91 12.668,-237.246C12.758,-231.184 12.945,-225.102 13.336,-219.051C13.59,-215.063 13.711,-211.039 14.117,-207.063C14.539,-202.906 14.965,-198.754 15.391,-194.602C16.012,-188.559 16.852,-182.527 17.656,-176.508C18.68,-168.887 19.594,-161.281 20.43,-153.641C21.368,-145.09 21.945,-136.5 22.576,-127.922C22.745,-124.202 22.904,-120.482 23.07,-116.762C23.219,-113.445 23.168,-110.113 23.199,-106.797C23.258,-100.613 23.231,-94.434 23.219,-88.25C23.191,-74.324 23.289,-60.383 22.992,-46.453C22.828,-38.811 22.592,-31.195 22.224,-23.562C21.938,-19.929 21.56,-16.321 20.916,-12.728C20.695,-11.755 20.45,-10.794 20.165,-9.838C19.717,-8.652 19.238,-7.48 18.715,-6.324C16.012,-0.367 19.203,6.906 25.102,9.402C31.242,12 38.129,8.965 40.828,3.016C41.699,1.098 42.496,-0.871 43.129,-2.879C43.867,-5.211 44.348,-7.59 44.797,-9.992C45.613,-14.324 46.004,-18.801 46.207,-23.203C46.375,-26.906 46.559,-30.609 46.727,-34.316C47.043,-41.148 47.016,-48.019 47.082,-54.863C47.211,-68.512 47.215,-82.16 47.227,-95.813C47.231,-98.953 47.246,-102.094 47.215,-105.234C47.18,-108.816 47.258,-112.418 47.106,-115.996C46.93,-119.984 46.75,-123.969 46.574,-127.953C46.402,-131.859 46.016,-135.758 45.731,-139.656C44.707,-153.508 43.113,-167.281 41.266,-181.047C39.96,-190.787 38.894,-200.534 37.898,-210.313C37.484,-216.848 37.097,-223.365 36.883,-229.914C36.656,-236.879 36.578,-243.844 36.473,-250.813C36.273,-263.992 36.422,-277.168 35.895,-290.344C35.489,-300.492 35.016,-310.635 34.34,-320.769C32.565,-348.533 30.536,-376.283 28.484,-404.027C27.766,-413.715 27.03,-423.402 26.351,-433.089C26.345,-433.481 26.32,-433.87 26.276,-434.255C26.243,-435.09 26.16,-435.925 26.102,-436.754C26.056,-437.714 25.971,-438.68 25.906,-439.656C25.762,-441.828 25.613,-444.004 25.469,-446.176C25.44,-446.619 25.418,-447.062 25.393,-447.505C25.384,-447.749 25.368,-447.993 25.345,-448.235C25.34,-448.308 25.334,-448.38 25.328,-448.453C25.302,-448.922 25.264,-449.391 25.228,-449.859C24.715,-463.06 24.292,-476.245 24.191,-489.453C24.082,-504.063 24.035,-518.672 24.016,-533.285C23.988,-560.027 24,-586.773 24,-613.516L24,-629.648C24,-636.188 18.539,-641.648 12,-641.648C5.461,-641.648 0,-636.188 0,-629.648ZM25.141,-451.064C25.164,-450.712 25.188,-450.36 25.212,-450.007C25.228,-449.764 25.244,-449.52 25.261,-449.276C25.239,-449.584 25.213,-449.887 25.182,-450.187C25.174,-450.477 25.16,-450.769 25.141,-451.064Z" style="fill-rule:nonzero;"/>
            </g>
            <g transform="matrix(1,0,0,-1,649.827,1413.35)">
                <path d="M0,-14.252C-0.883,-7.74 3.789,-1.658 10.262,-0.733C19.43,0.576 28.773,0.467 38.012,0.576C46.66,0.682 55.313,0.685 63.961,0.705C81.066,0.744 98.176,0.74 115.281,0.744L168.141,0.744C185.086,0.744 202.012,1.256 218.945,1.924C228.004,2.279 237.055,2.65 246.117,2.842C255.258,3.037 264.398,3.221 273.543,3.377C291.547,3.693 309.543,4.248 327.547,4.685C345.25,5.115 362.949,5.674 380.652,6.107C389.449,6.322 398.246,6.596 407.039,6.846C415.785,7.1 424.531,7.162 433.277,7.295C450.922,7.568 468.57,7.517 486.215,7.553C503.656,7.584 521.098,7.576 538.539,7.58L589.816,7.58C606.566,7.58 623.324,7.65 640.066,8.135C657.504,8.639 674.941,9.389 692.383,9.713C710.941,10.053 729.5,10.209 748.062,10.267C758.703,10.303 769.344,10.303 779.984,10.31C785.137,10.314 790.293,10.314 795.445,10.318C801.078,10.318 806.707,10.377 812.324,9.85C818.84,9.236 823.437,2.603 822.586,-3.67C822.164,-6.772 820.504,-9.627 818.027,-11.541C815.422,-13.553 812.301,-14.237 809.066,-13.932C808.819,-13.907 808.57,-13.885 808.322,-13.862C804.577,-13.663 800.831,-13.682 797.082,-13.682C792.731,-13.686 788.383,-13.686 784.035,-13.686C775.168,-13.69 766.301,-13.701 757.437,-13.713C741.121,-13.733 724.793,-13.682 708.481,-13.99C699.852,-14.154 691.215,-14.229 682.59,-14.518C673.758,-14.818 664.93,-15.147 656.102,-15.404C646.941,-15.666 637.766,-16.115 628.602,-16.186C619.059,-16.26 609.516,-16.334 599.977,-16.42C581.828,-16.576 563.668,-16.42 545.52,-16.42C528.113,-16.42 510.707,-16.424 493.301,-16.44C475.648,-16.455 458,-16.525 440.348,-16.627C422.875,-16.725 405.414,-17.197 387.949,-17.701C353.645,-18.697 319.332,-19.526 285.027,-20.42C268.477,-20.85 251.902,-20.783 235.359,-21.432C217.156,-22.147 198.957,-22.975 180.742,-23.139C156.125,-23.362 131.504,-23.33 106.887,-23.299C95.926,-23.283 84.965,-23.268 74.004,-23.279C64.734,-23.283 55.465,-23.311 46.191,-23.362C37.05,-23.407 27.905,-23.467 18.775,-23.911C17.017,-24.076 15.27,-24.264 13.52,-24.514C12.977,-24.591 12.435,-24.629 11.9,-24.629C6.052,-24.629 0.805,-20.16 0,-14.252Z" style="fill-rule:nonzero;"/>
            </g>
            <g transform="matrix(1,0,0,-1,640.15,1060.74)">
                <path d="M0,-332.906C0,-311.305 0.188,-289.68 -0.356,-268.082C-0.495,-262.518 -0.719,-256.965 -0.978,-251.402C-1.383,-246.222 -1.817,-241.058 -2.387,-235.894C-3,-230.363 -3.676,-224.844 -4.34,-219.32C-5.668,-208.238 -7.137,-197.18 -8.617,-186.121C-9.262,-181.324 -9.898,-176.527 -10.434,-171.719C-10.813,-168.297 -11.305,-164.871 -11.504,-161.433C-11.684,-158.34 -11.867,-155.246 -12.051,-152.152C-12.332,-147.316 -12.34,-142.465 -12.367,-137.625C-12.402,-131.488 -12.457,-125.355 -12.531,-119.223C-12.624,-111.712 -12.923,-104.213 -13.243,-96.71C-13.594,-91.807 -13.939,-86.91 -14.461,-82.019C-15.106,-75.973 -15.785,-69.933 -16.473,-63.894C-17.074,-58.644 -17.738,-53.375 -18.062,-48.105C-18.422,-42.273 -18.777,-36.445 -19.094,-30.609C-19.415,-24.757 -19.64,-18.905 -19.949,-13.053C-20.112,-11.108 -20.316,-9.176 -20.645,-7.254C-20.725,-6.936 -20.81,-6.623 -20.903,-6.309C-20.913,-6.284 -20.923,-6.259 -20.934,-6.234C-23.363,-0.164 -20.652,6.91 -14.547,9.492C-8.613,12 -1.246,9.172 1.18,3.106C3.812,-3.476 3.922,-10.648 4.301,-17.637C4.469,-20.715 4.535,-23.801 4.703,-26.879C5.069,-33.577 5.469,-40.272 5.871,-46.969C7.05,-58.177 8.318,-69.37 9.516,-80.578C10.711,-91.797 11.109,-103.101 11.367,-114.379C11.551,-122.32 11.59,-130.266 11.637,-138.211C11.66,-141.973 11.746,-145.73 11.793,-149.488C11.837,-152.965 12.166,-156.46 12.401,-159.936C14.833,-182.006 17.986,-203.988 20.645,-226.027C21.219,-230.789 21.82,-235.558 22.191,-240.34C22.703,-246.887 23.113,-253.418 23.414,-259.976C23.895,-270.508 23.883,-281.078 23.934,-291.617C24.004,-305.379 24,-319.144 24,-332.906C24,-339.445 18.543,-344.906 12,-344.906C5.461,-344.906 0,-339.445 0,-332.906Z" style="fill-rule:nonzero;"/>
            </g>
            <g transform="matrix(1,0,0,-1,305.969,709.177)">
                <path d="M0,-276.847C-4.672,-272.175 -4.559,-264.566 0,-259.878C1.699,-258.128 3.582,-256.511 5.594,-255.132C7.761,-253.646 10.088,-252.52 12.445,-251.383C15.74,-249.656 18.905,-247.638 21.994,-245.567C27.438,-241.815 32.637,-237.786 37.625,-233.452C40.711,-230.77 43.797,-228.091 46.883,-225.409C51.902,-220.856 56.867,-216.234 61.977,-211.78C66.674,-207.687 71.382,-203.6 76.084,-199.504C84.481,-191.981 92.914,-184.497 101.344,-177.011C109.238,-169.999 116.945,-162.78 124.742,-155.659C130.137,-150.73 135.496,-145.761 140.859,-140.792C145.398,-136.583 149.587,-131.991 153.894,-127.547C160.664,-119.626 167.407,-111.69 173.711,-103.39C180.644,-94.269 187.574,-85.148 194.512,-76.026C203.51,-64.199 212.149,-52.117 220.593,-39.888C224.822,-33.551 229.094,-27.253 232.823,-20.608C233.512,-19.183 234.17,-17.753 234.801,-16.292C235.754,-14.081 236.758,-12.042 238.18,-10.081C240.023,-7.53 242.563,-5.534 245.203,-3.882C248.535,-1.8 252.356,-0.573 256.035,0.727C258.371,1.555 260.719,2.306 263.145,2.809C266.363,3.474 269.492,3.298 272.395,1.599C275.074,0.028 277.082,-2.577 277.906,-5.573C278.758,-8.667 278.32,-12.05 276.699,-14.82C275.203,-17.37 272.488,-19.722 269.527,-20.335C267.792,-20.694 266.118,-21.193 264.429,-21.721C262.247,-22.494 260.082,-23.282 257.977,-24.25C257.761,-24.368 257.547,-24.488 257.334,-24.612C256.159,-27.257 255.093,-29.945 253.68,-32.48C252.258,-35.03 250.773,-37.515 249.242,-39.999C246.305,-44.765 243.117,-49.429 239.945,-54.042C233.863,-62.882 227.695,-71.659 221.281,-80.265C214.785,-88.983 208.215,-97.64 201.641,-106.296C198.297,-110.698 195.012,-115.155 191.578,-119.487C188.164,-123.8 184.832,-128.198 181.262,-132.386C177.453,-136.858 173.785,-141.507 169.691,-145.722C165.856,-149.675 162.129,-153.777 158.086,-157.523C150,-165.023 141.859,-172.468 133.734,-179.925C116.578,-195.663 99.188,-211.155 81.629,-226.44C80.235,-227.654 78.839,-228.867 77.443,-230.082C71.577,-235.4 65.744,-240.763 59.77,-245.956C56.125,-249.12 52.477,-252.288 48.836,-255.456C44.898,-258.878 40.523,-261.921 36.223,-264.866C33.707,-266.589 31.145,-268.241 28.535,-269.819C25.984,-271.36 23.366,-272.712 20.694,-274.018C20.26,-274.249 19.833,-274.488 19.409,-274.738C18.918,-275.102 18.441,-275.478 17.972,-275.868C17.63,-276.186 17.298,-276.51 16.969,-276.847C14.704,-279.176 11.628,-280.32 8.547,-280.32C5.427,-280.32 2.301,-279.148 0,-276.847Z" style="fill-rule:nonzero;"/>
            </g>
            <g transform="matrix(1,0,0,-1,891.584,707.218)">
                <path d="M0,-43.012C-17.973,-42.938 -35.988,-42.88 -53.926,-41.669C-53.81,-41.677 -53.693,-41.685 -53.577,-41.693C-57.566,-41.429 -61.555,-41.163 -65.544,-40.893C-70.553,-40.624 -75.565,-40.286 -80.578,-40.106C-86.051,-39.911 -91.527,-39.751 -96.996,-39.466C-102.926,-39.157 -108.848,-38.907 -114.762,-38.38C-120.32,-37.884 -125.879,-37.415 -131.426,-36.794C-142.547,-35.552 -153.633,-34.083 -164.746,-32.805C-175.887,-31.52 -187.031,-30.278 -198.164,-28.895C-210.838,-27.324 -223.536,-26.016 -236.259,-24.864C-241.405,-24.617 -246.549,-24.342 -251.691,-24.098C-253.535,-24.009 -255.387,-24.016 -257.234,-24.024C-258.145,-24.028 -259.051,-24.028 -259.953,-24.024C-262.551,-24.001 -265.148,-23.946 -267.746,-23.954C-278.625,-23.989 -289.504,-23.977 -300.383,-24.153C-306.024,-24.241 -311.678,-24.302 -317.314,-24.625C-318.152,-24.695 -318.986,-24.778 -319.819,-24.902C-326.106,-26.381 -332.657,-22.833 -334.406,-16.481C-336.109,-10.29 -332.367,-3.305 -326.023,-1.719C-321.223,-0.516 -316.18,-0.563 -311.258,-0.391C-308.77,-0.302 -306.289,-0.247 -303.801,-0.208C-297.699,-0.11 -291.602,-0.059 -285.5,-0.016C-274.523,0.058 -263.555,0.007 -252.582,-0.091C-247.137,-0.137 -241.672,-0.594 -236.234,-0.864C-230.34,-1.157 -224.457,-1.88 -218.582,-2.423C-207.742,-3.434 -196.93,-4.864 -186.125,-6.204C-175.934,-7.469 -165.699,-8.415 -155.512,-9.715C-144.703,-11.094 -133.879,-12.61 -123.023,-13.571C-118.181,-14.004 -113.336,-14.434 -108.493,-14.866C-101.541,-15.227 -94.593,-15.606 -87.633,-15.852C-79.703,-16.137 -71.777,-16.473 -63.859,-17.009C-63.976,-17 -64.092,-16.992 -64.208,-16.984C-60.223,-17.248 -56.237,-17.514 -52.251,-17.783C-47.106,-18.029 -41.962,-18.329 -36.813,-18.473C-30.711,-18.645 -24.609,-18.778 -18.508,-18.872C-8.066,-19.032 2.375,-19.028 12.816,-19.048C29.895,-19.075 46.973,-19.063 64.055,-19.063C70.594,-19.063 76.055,-24.524 76.055,-31.063C76.055,-37.602 70.594,-43.063 64.055,-43.063C54.448,-43.063 44.837,-43.07 35.23,-43.07C23.486,-43.07 11.744,-43.06 0,-43.012Z" style="fill-rule:nonzero;"/>
            </g>
            <g transform="matrix(1,0,0,-1,637.682,967.973)">
                <path d="M0,-84.693C-0.539,-84.284 -1.083,-83.883 -1.629,-83.486C-2.559,-82.878 -3.498,-82.294 -4.474,-81.755C-4.867,-81.575 -5.262,-81.405 -5.664,-81.244C-10.625,-79.625 -15.625,-78.076 -20.621,-76.568C-25.769,-75.017 -30.93,-73.439 -36.18,-72.255C-47.055,-69.802 -57.973,-67.56 -68.828,-65.029C-79.191,-62.607 -89.449,-59.802 -99.668,-56.841C-105.324,-55.205 -110.988,-53.583 -116.652,-51.978C-121.388,-50.635 -126.235,-49.691 -131.038,-48.615C-141.122,-46.66 -151.226,-44.806 -161.301,-42.806C-164.519,-42.166 -167.734,-41.529 -170.953,-40.888C-173.793,-40.322 -176.598,-39.583 -179.414,-38.896C-185.156,-37.497 -190.895,-36.08 -196.629,-34.654C-206.272,-32.254 -215.94,-30.047 -225.652,-27.962C-231.754,-26.785 -237.827,-25.603 -243.98,-24.74C-250.592,-23.812 -257.203,-23.09 -263.841,-22.362C-267.288,-22.163 -270.736,-21.956 -274.18,-21.755C-277.633,-21.552 -281.113,-21.626 -284.566,-21.583C-291.527,-21.494 -298.496,-21.568 -305.457,-21.568C-311.996,-21.568 -317.457,-16.107 -317.457,-9.568C-317.457,-3.025 -311.996,2.432 -305.457,2.432L-287.363,2.432C-282.539,2.432 -277.691,2.452 -272.875,2.17C-269.496,1.971 -266.113,1.772 -262.734,1.573C-259.754,1.397 -256.789,1.01 -253.82,0.694C-248.039,0.073 -242.297,-0.74 -236.535,-1.548C-231.57,-2.244 -226.648,-3.361 -221.723,-4.31C-216.301,-5.353 -210.871,-6.521 -205.5,-7.818C-194.188,-10.541 -182.898,-13.353 -171.594,-16.107C-169.885,-16.521 -168.175,-16.935 -166.466,-17.353C-156.605,-19.304 -146.726,-21.167 -136.855,-23.08C-130.644,-24.279 -124.465,-25.517 -118.293,-26.908C-116.039,-27.416 -113.754,-27.849 -111.531,-28.478C-108.145,-29.439 -104.758,-30.4 -101.375,-31.361C-91.043,-34.291 -80.742,-37.283 -70.344,-39.974C-59.77,-42.708 -49.063,-44.97 -38.371,-47.197C-30.441,-48.849 -22.648,-50.888 -14.895,-53.228C-11.242,-54.33 -7.602,-55.49 -3.965,-56.646C-0.738,-57.669 2.578,-58.517 5.629,-60.001C8.84,-61.56 11.832,-63.529 14.664,-65.693C19.856,-69.662 20.816,-77.373 16.832,-82.525C14.487,-85.559 10.908,-87.144 7.301,-87.144C4.737,-87.145 2.159,-86.344 0,-84.693Z" style="fill-rule:nonzero;"/>
            </g>
            <g transform="matrix(1,0,0,-1,301.23,975.931)">
                <path d="M0,-395.008C0.261,-389.847 0.606,-384.693 0.962,-379.54C1.52,-368.619 1.223,-357.643 1.223,-346.711L1.223,-315.805C1.223,-293.227 1.219,-270.652 1.203,-248.074C1.199,-237.742 1.207,-227.406 1.102,-217.078C0.992,-206.066 0.945,-195.047 0.469,-184.047C0.298,-180.122 0.127,-176.2 -0.048,-172.278C-0.83,-161.973 -1.6,-151.666 -2.766,-141.395C-4.07,-129.879 -5.074,-118.34 -6.047,-106.793C-6.902,-96.672 -8.742,-86.645 -9.578,-76.523C-9.875,-72.93 -10.172,-69.336 -10.469,-65.738C-10.68,-63.152 -10.676,-60.578 -10.695,-57.984C-10.719,-55.262 -10.84,-52.52 -10.754,-49.801C-10.652,-46.559 -10.547,-43.316 -10.445,-40.07C-10.164,-31.227 -9.602,-22.313 -7.734,-13.645C-7.203,-11.168 -6.496,-8.672 -5.582,-6.313C-4.414,-3.293 -2.781,-0.617 -0.641,1.801C1.414,4.129 3.988,6.172 6.836,7.434C9.18,8.469 11.699,9.164 14.133,9.965C20.352,12 27.223,7.66 28.895,1.582C29.746,-1.512 29.309,-4.895 27.688,-7.664C26.062,-10.438 23.523,-12.195 20.516,-13.18C19.395,-13.546 18.279,-13.917 17.16,-14.282C17.121,-14.322 17.081,-14.362 17.042,-14.402C17.03,-14.422 17.018,-14.443 17.007,-14.464C16.909,-14.686 16.816,-14.91 16.727,-15.135C16.201,-16.78 15.768,-18.456 15.387,-20.14C14.636,-24.258 14.214,-28.447 13.909,-32.621C13.563,-38.342 13.426,-44.073 13.246,-49.801C13.109,-54.127 13.3,-58.486 13.337,-62.814C13.695,-67.397 13.95,-72.007 14.52,-76.563C15.211,-82.137 15.922,-87.707 16.566,-93.289C17.25,-99.195 17.863,-105.082 18.363,-111.008C18.852,-116.777 19.391,-122.543 19.93,-128.309C20.379,-133.16 21.106,-137.988 21.547,-142.844C22.02,-148.051 22.539,-153.25 22.934,-158.465C23.387,-164.469 23.875,-170.461 24.137,-176.477C24.383,-182.086 24.625,-187.684 24.746,-193.297C25.234,-215.984 25.195,-238.68 25.215,-261.371C25.231,-283.242 25.223,-305.113 25.223,-326.984L25.223,-355.563C25.223,-360.934 25.231,-366.301 25.211,-371.672C25.197,-376.571 24.839,-381.449 24.501,-386.333C24.319,-389.225 24.145,-392.115 24,-395.008C23.836,-398.231 22.805,-401.172 20.484,-403.492C18.246,-405.731 15.164,-407.008 12,-407.008C5.707,-407.008 -0.336,-401.543 0,-395.008Z" style="fill-rule:nonzero;"/>
            </g>
            <g transform="matrix(1,0,0,-1,625.256,1356.91)">
                <path d="M0,-70.619C-0.243,-70.273 -0.492,-69.937 -0.748,-69.606C-4.559,-69.061 -8.431,-68.811 -12.258,-68.419C-15.035,-68.134 -17.805,-67.81 -20.578,-67.501C-22.895,-67.248 -25.203,-66.951 -27.512,-66.666C-30.074,-66.345 -32.668,-66.126 -35.215,-65.701C-40.637,-64.794 -46.098,-64.021 -51.492,-62.966C-57.539,-61.787 -63.59,-60.623 -69.641,-59.443C-80.481,-57.326 -91.352,-55.416 -102.238,-53.572C-112.305,-51.865 -122.352,-50.052 -132.414,-48.333C-138.117,-47.361 -143.82,-46.427 -149.484,-45.263C-154.863,-44.154 -160.254,-43.087 -165.613,-41.9C-176.488,-39.49 -187.332,-37.001 -198.129,-34.251C-206.008,-32.248 -213.848,-30.169 -221.688,-28.013C-228.88,-26.032 -236.129,-24.135 -243.427,-22.608C-249.722,-21.358 -256.07,-20.377 -262.471,-19.881C-266.088,-19.686 -269.7,-19.668 -273.317,-19.859C-275.84,-20.062 -278.346,-20.354 -280.837,-20.81C-282.108,-21.108 -283.358,-21.452 -284.599,-21.848C-285.391,-22.148 -286.171,-22.465 -286.946,-22.811C-288.829,-23.821 -290.648,-24.948 -292.441,-26.107C-297.941,-29.658 -305.668,-27.251 -308.859,-21.802C-310.48,-19.029 -310.922,-15.65 -310.07,-12.552C-309.219,-9.462 -307.207,-7.095 -304.555,-5.38C-301.527,-3.423 -298.418,-1.58 -295.09,-0.173C-291.016,1.545 -286.684,2.573 -282.332,3.284C-274.133,4.62 -265.684,4.479 -257.437,3.756C-246.629,2.807 -236.07,0.417 -225.57,-2.212C-214.688,-4.939 -203.899,-8.017 -193.023,-10.787C-184.793,-12.88 -176.543,-14.919 -168.254,-16.755C-159.397,-18.72 -150.531,-20.587 -141.65,-22.419C-130.236,-24.301 -118.844,-26.343 -107.449,-28.341C-97.305,-30.123 -87.141,-31.775 -77.012,-33.669C-71.949,-34.619 -66.887,-35.564 -61.832,-36.544C-56.465,-37.587 -51.109,-38.708 -45.719,-39.611C-40.133,-40.548 -34.559,-41.603 -28.934,-42.302C-22.875,-43.056 -16.816,-43.779 -10.746,-44.455C-7.949,-44.767 -5.144,-45.048 -2.344,-45.314C1.563,-45.681 5.516,-45.97 9.156,-47.556C13.148,-49.294 16.512,-52.427 19,-55.951C20.875,-58.607 21.836,-61.642 21.391,-64.912C20.969,-68.013 19.309,-70.873 16.832,-72.783C14.717,-74.417 12.059,-75.238 9.41,-75.238C5.787,-75.238 2.18,-73.703 0,-70.619Z" style="fill-rule:nonzero;"/>
            </g>
            <g transform="matrix(1,0,0,-1,654.809,1405.79)">
                <path d="M0,-131.023C-4.406,-130.917 -9.387,-130.332 -13.188,-127.91C-15.438,-126.48 -17.203,-124.933 -18.684,-122.703C-19.953,-120.789 -20.676,-118.574 -21.074,-116.324C-21.606,-113.355 -21.484,-110.277 -21.48,-107.269C-21.477,-104.261 -21.465,-101.253 -21.453,-98.249C-21.41,-87.781 -21.359,-77.3 -21.078,-66.835C-20.762,-55.21 -20.313,-43.589 -20.168,-31.956C-20.082,-25.3 -20.129,-18.64 -20.129,-11.984C-20.129,-5.441 -14.668,0.016 -8.129,0.016C-1.59,0.016 3.871,-5.441 3.871,-11.984C3.871,-22.335 4.012,-32.703 3.652,-43.05C3.246,-54.812 2.918,-66.574 2.719,-78.339C2.633,-83.496 2.609,-88.656 2.574,-93.816C2.547,-98.205 2.439,-102.614 2.464,-107.014C3.193,-106.997 3.922,-106.965 4.653,-106.925C10.2,-106.454 15.686,-105.394 21.219,-104.781C25.746,-104.281 30.269,-103.781 34.801,-103.308C42.152,-102.543 49.541,-101.909 56.929,-101.519C57.138,-100.141 57.285,-98.757 57.398,-97.365C57.743,-91.503 57.679,-85.67 57.324,-79.808C56.886,-73.983 56.163,-68.177 55.046,-62.441C53.266,-54.211 50.727,-46.21 48.03,-38.245C46.633,-34.356 45.233,-30.481 43.522,-26.72C43.467,-26.619 43.411,-26.518 43.356,-26.417C41.813,-23.554 41.273,-20.343 42.148,-17.171C42.973,-14.171 44.981,-11.57 47.66,-9.999C53.16,-6.777 60.977,-8.554 64.078,-14.304C66.973,-19.656 68.992,-25.464 70.949,-31.21C72.906,-36.953 74.84,-42.714 76.387,-48.581C78.457,-56.421 79.922,-64.367 80.75,-72.433C81.598,-80.667 81.902,-88.968 81.41,-97.234C81.168,-101.312 80.758,-105.281 79.824,-109.261C78.863,-113.363 77.16,-117.523 74.141,-120.542C70.777,-123.906 66.113,-125.144 61.504,-125.308C60.074,-125.359 58.652,-125.449 57.227,-125.539C56.013,-125.616 54.796,-125.69 53.581,-125.764C43.403,-126.488 33.194,-127.367 23.082,-128.746C19.34,-129.253 15.602,-129.761 11.859,-130.269C8.402,-130.735 4.883,-131.039 1.384,-131.039C0.922,-131.039 0.461,-131.034 0,-131.023Z" style="fill-rule:nonzero;"/>
            </g>
            <g transform="matrix(1,0,0,-1,880.682,1403.25)">
                <path d="M0,-160.513C-5.387,-160.509 -10.777,-160.497 -16.168,-160.481C-25.773,-160.446 -35.375,-160.356 -44.981,-160.2C-50.543,-160.11 -56.121,-159.899 -61.672,-159.564C-68.645,-159.138 -75.863,-158.575 -82.484,-156.196C-86.324,-154.817 -90.059,-152.173 -92.121,-148.571C-93.148,-146.778 -93.902,-144.911 -94.184,-142.853C-94.427,-141.064 -94.321,-139.248 -94.195,-137.453C-93.847,-131.916 -93.701,-126.365 -93.324,-120.829C-92.93,-115.005 -92.488,-109.185 -92.039,-103.36C-91.258,-93.212 -90.293,-83.106 -89.098,-72.997C-88.465,-67.653 -87.816,-62.31 -87.199,-56.966C-87.202,-57.008 -87.205,-57.051 -87.208,-57.094C-86.796,-51.127 -86.271,-45.145 -86.191,-39.169C-86.094,-31.864 -86.043,-24.564 -86.043,-17.255C-86.043,-10.716 -80.582,-5.255 -74.043,-5.255C-67.5,-5.255 -62.043,-10.716 -62.043,-17.255C-62.043,-22.536 -62.039,-27.817 -62.109,-33.099C-62.148,-35.911 -62.039,-38.77 -62.223,-41.583C-62.41,-44.415 -62.586,-47.247 -62.766,-50.079C-62.945,-52.911 -63.129,-55.743 -63.305,-58.575C-63.492,-61.505 -63.914,-64.419 -64.262,-67.337C-64.914,-72.845 -65.555,-78.349 -66.168,-83.864C-67.609,-96.779 -68.562,-109.75 -69.449,-122.714C-69.693,-126.687 -69.851,-130.665 -70.053,-134.638C-67.191,-135.096 -64.293,-135.361 -61.402,-135.577C-49.535,-136.319 -37.614,-136.348 -25.727,-136.435C-16.001,-136.508 -6.274,-136.538 3.449,-136.511C3.635,-135.263 3.779,-134.01 3.887,-132.748C4.036,-129.641 4.009,-126.541 3.835,-123.434C3.425,-118.307 2.68,-113.244 1.687,-108.199C0.439,-102.356 -1.207,-96.627 -2.746,-90.856C-3.66,-87.427 -4.57,-83.997 -5.484,-80.567C-6.914,-75.192 -8.27,-69.798 -9.641,-64.411C-10.816,-59.798 -12.07,-55.196 -13.375,-50.618C-14.918,-45.2 -16.398,-39.743 -18.207,-34.403C-18.787,-32.682 -19.371,-30.96 -19.955,-29.242C-21.411,-25.079 -22.872,-20.91 -24.719,-16.903C-27.457,-10.962 -24.207,-3.661 -18.332,-1.177C-15.375,0.077 -11.953,0.077 -8.992,-1.177C-6.07,-2.411 -3.918,-4.712 -2.606,-7.564C-0.262,-12.649 1.543,-18.009 3.34,-23.31C5.102,-28.513 6.777,-33.735 8.281,-39.02C9.934,-44.813 11.512,-50.626 13.086,-56.442C14.371,-61.181 15.473,-65.97 16.734,-70.716C18.59,-77.673 20.422,-84.638 22.328,-91.579C24.461,-99.345 26.184,-107.267 27.145,-115.267C28.109,-123.313 28.387,-131.513 27.281,-139.56C26.723,-143.61 25.793,-147.81 23.801,-151.419C22.863,-153.118 21.699,-154.704 20.269,-156.024C17.871,-158.231 15.063,-159.435 11.898,-160.079C9.877,-160.492 7.756,-160.59 5.629,-160.59C3.736,-160.59 1.838,-160.513 0,-160.513Z" style="fill-rule:nonzero;"/>
            </g>
            <g transform="matrix(1,0,0,-1,1140.6,1404.6)">
                <path d="M0,-146.516C-2.109,-145.97 -3.998,-145.041 -5.907,-144.041C-9.846,-142.159 -13.869,-140.435 -17.844,-138.641C-22.783,-136.415 -27.843,-134.364 -32.952,-132.552C-36.928,-131.24 -40.977,-130.243 -45.057,-129.323C-47.705,-128.818 -50.351,-128.299 -52.996,-127.79C-56.027,-127.208 -59.094,-126.786 -62.074,-125.954C-66.555,-124.708 -71.309,-122.692 -74.086,-118.739C-75.453,-116.79 -76.566,-114.852 -77.145,-112.524C-77.672,-110.399 -77.648,-108.247 -77.523,-106.079C-77.383,-103.602 -77.023,-101.13 -76.746,-98.665C-76.43,-95.856 -76.082,-93.048 -75.738,-90.243C-74.387,-79.204 -72.543,-68.219 -70.746,-57.251C-69.848,-51.774 -68.629,-46.344 -67.625,-40.884C-66.902,-36.938 -66.176,-32.989 -65.449,-29.044C-64.852,-25.774 -64.309,-22.497 -63.629,-19.247C-63.188,-17.133 -62.688,-15.036 -62.051,-12.973C-61.246,-10.368 -60.086,-8.008 -58.578,-5.751C-56.816,-3.106 -54.531,-1.094 -51.406,-0.235C-48.313,0.617 -44.93,0.179 -42.16,-1.446C-39.481,-3.012 -37.469,-5.618 -36.645,-8.614C-35.832,-11.575 -36.117,-15.251 -37.856,-17.864C-38.252,-18.457 -38.639,-19.051 -38.998,-19.664C-39.002,-19.675 -39.007,-19.686 -39.011,-19.697C-39.519,-21.384 -39.941,-23.093 -40.315,-24.814C-41.651,-31.653 -42.812,-38.529 -44.074,-45.38C-44.992,-50.372 -46.121,-55.341 -46.941,-60.352C-48.734,-71.309 -50.586,-82.274 -51.934,-93.294C-52.345,-96.663 -52.762,-100.034 -53.152,-103.408C-49.071,-104.171 -44.991,-104.938 -40.91,-105.712C-32.246,-107.36 -23.828,-110.075 -15.703,-113.485C-12.035,-115.02 -8.391,-116.579 -4.766,-118.212C-3.656,-118.712 -2.544,-119.208 -1.433,-119.707C-1.398,-119.272 -1.366,-118.836 -1.336,-118.399C-1.336,-118.404 -1.337,-118.409 -1.337,-118.414C-1.239,-116.974 -1.138,-115.533 -1.037,-114.093C-0.586,-106.644 -0.584,-99.195 -1.034,-91.746C-2.022,-78.69 -4.675,-65.755 -7.255,-52.927C-8.068,-49.134 -8.869,-45.337 -9.656,-41.54C-10.59,-37.048 -11.477,-32.52 -11.805,-27.934C-12.035,-24.669 -11.457,-21.618 -9.414,-18.973C-7.5,-16.501 -4.641,-14.837 -1.543,-14.415C1.625,-13.985 4.891,-14.852 7.422,-16.805C9.777,-18.63 11.762,-21.637 11.977,-24.68C12.261,-28.626 12.989,-32.504 13.74,-36.385C15.407,-44.343 17.198,-52.286 18.617,-60.294C19.871,-67.376 21.211,-74.458 22.106,-81.594C22.875,-87.774 23.188,-94.04 23.301,-100.262C23.422,-106.817 23.004,-113.337 22.562,-119.872C22.58,-119.622 22.598,-119.373 22.614,-119.123C22.368,-122.875 22.102,-126.59 21.305,-130.278C20.578,-133.626 19.695,-137.024 17.914,-139.981C16.672,-142.044 14.898,-143.891 12.816,-145.11C10.609,-146.403 8.246,-146.95 5.715,-147.102C5.385,-147.123 5.053,-147.133 4.718,-147.133C3.137,-147.133 1.515,-146.91 0,-146.516Z" style="fill-rule:nonzero;"/>
            </g>
            <g transform="matrix(1,0,0,-1,1307.15,1396.22)">
                <path d="M0,-226.696C0.115,-226.72 0.229,-226.743 0.343,-226.766C-10.336,-224.747 -20.84,-221.829 -31.379,-219.196C-33.903,-218.567 -36.457,-218.024 -38.954,-217.294C-42.223,-216.333 -45.493,-215.376 -48.762,-214.415C-50.872,-213.797 -52.957,-213.118 -55.047,-212.442C-57.926,-211.516 -60.856,-210.684 -63.688,-209.614C-66.844,-208.419 -70,-207.227 -73.157,-206.032C-75.106,-205.297 -77.016,-204.454 -78.914,-203.606C-82.645,-201.934 -86.418,-200.04 -89.778,-197.696C-93.122,-195.36 -96.168,-192.059 -97.786,-188.278C-99.465,-184.364 -99.411,-180.266 -99.176,-176.098C-99.02,-173.321 -98.95,-170.536 -98.84,-167.758C-98.411,-156.7 -98.254,-145.653 -98.25,-134.59C-98.239,-113.098 -98.383,-91.59 -98.036,-70.102C-97.918,-62.7 -97.864,-55.293 -97.555,-47.899C-97.383,-43.797 -97.211,-39.7 -97.039,-35.598C-96.836,-30.84 -96.407,-26.016 -95.567,-21.329C-95.114,-18.801 -94.559,-16.29 -93.727,-13.856C-92.754,-11.016 -91.387,-8.462 -89.782,-5.93C-88.094,-3.27 -85.684,-1.262 -82.61,-0.415C-79.516,0.437 -76.133,-0.001 -73.364,-1.626C-67.875,-4.836 -65.551,-12.516 -69.059,-18.043C-69.655,-18.983 -70.237,-19.937 -70.787,-20.906C-70.811,-20.964 -70.835,-21.021 -70.858,-21.079C-71.202,-22.174 -71.49,-23.28 -71.743,-24.399C-72.437,-28.199 -72.759,-32.032 -73.049,-35.879C-73.265,-41.437 -73.517,-46.994 -73.75,-52.551C-74,-58.489 -73.946,-64.454 -74.039,-70.399C-74.211,-80.993 -74.188,-91.59 -74.215,-102.188C-74.27,-124.2 -74,-146.215 -74.86,-168.215C-74.993,-171.636 -75.242,-175.075 -75.296,-178.503C-74.03,-179.256 -72.726,-179.948 -71.415,-180.623C-66.042,-183.208 -60.424,-185.214 -54.849,-187.309C-45.259,-190.379 -35.688,-193.388 -25.914,-195.825C-18.222,-197.744 -10.549,-199.825 -2.819,-201.613C-2.756,-201 -2.701,-200.384 -2.652,-199.769C-2.461,-195.992 -2.491,-192.213 -2.701,-188.436C-3.388,-179.508 -4.973,-170.717 -6.358,-161.877C-8.73,-151.141 -11.114,-140.413 -13.575,-129.696C-15.918,-119.497 -18.075,-109.258 -20.512,-99.083C-21.739,-93.954 -22.856,-88.793 -24.231,-83.704C-24.985,-80.923 -25.68,-78.118 -26.493,-75.352C-27.266,-72.715 -28.106,-70.094 -28.801,-67.438C-29.618,-64.309 -30.43,-61.208 -31.051,-58.036C-31.637,-55.055 -32.125,-52.098 -32.555,-49.09C-33.27,-44.09 -33.524,-39.024 -34.051,-34.001C-34.141,-33.161 -34.25,-32.321 -34.356,-31.485C-35.2,-25.004 -30.606,-18.852 -24.094,-17.965C-17.649,-17.09 -11.418,-21.743 -10.575,-28.227C-9.989,-32.754 -9.719,-37.313 -9.223,-41.852C-8.729,-46.38 -8.025,-50.831 -7.169,-55.298C-5.871,-60.234 -4.389,-65.11 -3.059,-70.04C-1.5,-75.805 -0.008,-81.559 1.371,-87.372C3.976,-98.376 6.476,-109.407 8.925,-120.45C11.308,-131.172 13.789,-141.868 16.148,-152.594C16.621,-154.751 17.152,-156.907 17.5,-159.087C18.058,-162.594 18.613,-166.102 19.172,-169.614C21.066,-181.567 22.238,-193.696 20.863,-205.778C20.269,-210.997 19.16,-216.508 15.972,-220.821C14.011,-223.473 11.375,-225.454 8.203,-226.415C6.761,-226.852 5.234,-227.133 3.722,-227.133C2.453,-227.133 1.229,-226.939 0,-226.696Z" style="fill-rule:nonzero;"/>
            </g>
            <g transform="matrix(1,0,0,-1,1794.71,889.217)">
                <path d="M0,-203.57C-7.883,-203.445 -15.754,-203.25 -23.629,-202.965C-39.977,-202.367 -56.453,-201.16 -72.555,-198.168C-80.422,-196.707 -88.285,-194.977 -95.906,-192.527C-103.551,-190.074 -110.945,-186.813 -117.895,-182.793C-129.714,-175.96 -139.556,-165.96 -146.939,-154.502C-154.606,-152.623 -161.979,-149.559 -168.891,-145.781C-175.793,-142.008 -182.328,-137.531 -188.613,-132.816C-195.019,-128.012 -201.137,-122.828 -206.797,-117.16C-212.852,-111.098 -218.359,-104.543 -223.969,-98.07C-227.527,-93.961 -230.785,-89.602 -234.133,-85.324C-237.508,-81.012 -240.813,-76.652 -244.141,-72.309C-247.316,-68.156 -250.269,-63.836 -253.309,-59.586C-254.738,-57.59 -255.996,-55.461 -257.313,-53.391C-258.848,-50.981 -260.434,-48.602 -261.848,-46.117C-264.547,-41.383 -267.082,-36.41 -268.895,-31.262C-269.954,-28.262 -271.019,-25.269 -272.043,-22.26C-272.203,-21.827 -272.371,-21.401 -272.551,-20.977C-272.684,-20.801 -272.821,-20.629 -272.965,-20.461C-277.051,-15.352 -275.902,-7.574 -270.797,-3.625C-265.555,0.422 -258.043,-0.691 -253.965,-5.793C-252.715,-7.352 -251.617,-9.047 -250.777,-10.863C-249.948,-12.66 -249.349,-14.544 -248.724,-16.418C-247.131,-20.964 -245.49,-25.446 -243.389,-29.793C-240.573,-35.217 -237.23,-40.301 -233.935,-45.445C-231.281,-49.158 -228.726,-52.956 -225.953,-56.582C-222.816,-60.68 -219.711,-64.809 -216.531,-68.875C-214.523,-71.438 -212.523,-73.996 -210.516,-76.559C-209.273,-78.145 -208.09,-79.801 -206.769,-81.324C-203.362,-85.256 -199.959,-89.187 -196.552,-93.118C-192.469,-97.528 -188.312,-101.856 -183.839,-105.867C-178.443,-110.526 -172.765,-114.867 -166.883,-118.891C-164.485,-120.482 -162.047,-122.02 -159.561,-123.473C-160.966,-116.254 -161.434,-108.96 -161.356,-101.582C-161.273,-93.281 -160.762,-85.02 -159.957,-76.758C-159.188,-68.828 -157.883,-60.957 -155.379,-53.375C-152.887,-45.836 -149.356,-38.645 -144.398,-32.406C-139.41,-26.137 -132.656,-21.246 -125.289,-18.164C-117.344,-14.84 -108.645,-14.422 -100.195,-15.504C-92.211,-16.527 -84.328,-19.156 -77.344,-23.148C-70.242,-27.211 -64.316,-33.117 -60.465,-40.352C-56.484,-47.828 -55.098,-56.234 -55.356,-64.645C-55.484,-68.973 -55.945,-73.273 -56.359,-77.578C-56.856,-82.789 -57.586,-87.945 -58.652,-93.074C-59.449,-96.902 -60.477,-100.668 -61.606,-104.406C-62.867,-108.57 -64.219,-112.711 -65.875,-116.734C-68.902,-124.082 -72.773,-131.027 -77.617,-137.332C-82.605,-143.824 -89.129,-149.332 -96.465,-152.965C-99.832,-154.633 -103.414,-155.871 -107.074,-156.719C-108.826,-157.125 -110.589,-157.406 -112.36,-157.594C-111.297,-158.431 -110.21,-159.237 -109.098,-160.012C-106.65,-161.602 -104.126,-163.053 -101.534,-164.395C-97.985,-166.128 -94.354,-167.672 -90.642,-169.012C-84.622,-171.027 -78.456,-172.507 -72.248,-173.804C-60.391,-176.179 -48.334,-177.485 -36.275,-178.339C-18.455,-179.483 -0.575,-179.56 17.273,-179.84C28.137,-180.008 39,-179.957 49.863,-179.938C72.348,-179.895 94.828,-179.5 117.309,-179.219C123.848,-179.137 129.309,-184.738 129.309,-191.219C129.309,-197.82 123.848,-203.137 117.309,-203.219C100.211,-203.434 83.113,-203.648 66.016,-203.856C54.941,-203.992 43.867,-203.945 32.793,-203.965C32.375,-203.966 31.956,-203.966 31.539,-203.966C21.023,-203.966 10.516,-203.736 0,-203.57ZM-115.875,-133.86C-114.983,-133.774 -114.102,-133.66 -113.219,-133.515C-112.076,-133.249 -110.948,-132.941 -109.827,-132.59C-108.758,-132.19 -107.71,-131.752 -106.675,-131.269C-105.824,-130.804 -104.993,-130.31 -104.177,-129.789C-103.086,-129.005 -102.034,-128.184 -101.007,-127.319C-99.912,-126.314 -98.861,-125.274 -97.856,-124.183C-96.67,-122.761 -95.56,-121.286 -94.499,-119.768C-93.093,-117.629 -91.788,-115.441 -90.598,-113.17C-89.045,-109.977 -87.65,-106.712 -86.447,-103.367C-84.7,-98.2 -83.149,-92.946 -81.992,-87.612C-80.753,-81.107 -80.15,-74.563 -79.532,-67.98C-79.387,-65.548 -79.27,-63.122 -79.366,-60.687C-79.497,-59.195 -79.672,-57.714 -79.925,-56.238C-80.084,-55.588 -80.26,-54.945 -80.455,-54.305C-80.76,-53.52 -81.089,-52.751 -81.444,-51.989C-81.811,-51.319 -82.195,-50.662 -82.599,-50.015C-83.072,-49.362 -83.565,-48.728 -84.08,-48.106C-84.632,-47.524 -85.196,-46.96 -85.777,-46.412C-86.39,-45.911 -87.017,-45.434 -87.66,-44.975C-88.766,-44.277 -89.89,-43.618 -91.04,-43.002C-92.497,-42.321 -93.981,-41.709 -95.49,-41.151C-97.195,-40.607 -98.917,-40.148 -100.664,-39.755C-102.478,-39.421 -104.295,-39.169 -106.131,-39.009C-107.478,-38.946 -108.818,-38.925 -110.165,-38.971C-110.98,-39.062 -111.786,-39.175 -112.593,-39.31C-113.487,-39.517 -114.37,-39.754 -115.251,-40.021C-116.071,-40.334 -116.875,-40.674 -117.673,-41.042C-118.662,-41.577 -119.626,-42.146 -120.573,-42.753C-121.418,-43.364 -122.239,-43.995 -123.041,-44.66C-123.705,-45.275 -124.346,-45.91 -124.967,-46.569C-125.725,-47.479 -126.442,-48.415 -127.132,-49.38C-128.045,-50.788 -128.893,-52.229 -129.678,-53.71C-130.635,-55.718 -131.488,-57.765 -132.261,-59.852C-133.209,-62.72 -133.98,-65.631 -134.623,-68.583C-135.867,-75.135 -136.45,-81.831 -136.913,-88.483C-137.365,-95.675 -137.615,-102.959 -137.223,-110.163C-136.967,-113.181 -136.54,-116.173 -135.979,-119.151C-135.374,-121.921 -134.635,-124.644 -133.745,-127.335C-133.037,-129.271 -132.259,-131.176 -131.412,-133.053C-129.234,-133.357 -127.047,-133.601 -124.854,-133.775C-121.866,-133.932 -118.864,-133.995 -115.875,-133.86Z" style="fill-rule:nonzero;"/>
            </g>
            <g transform="matrix(0,-2.02978,2.02978,0,522.318,933.59)">
                <path d="M12,-12C18.539,-12 24,-6.539 24,0C24,6.539 18.539,12 12,12C5.461,12 0,6.539 0,0C0,-6.539 5.461,-12 12,-12Z" style="fill-rule:nonzero;"/>
            </g>
            <g transform="matrix(-1.44942e-18,-2.09172,2.1201,2.08314e-18,617.738,952.85)">
                <path d="M12,-12C18.539,-12 24,-6.539 24,0C24,6.539 18.539,12 12,12C5.461,12 0,6.539 0,0C0,-6.539 5.461,-12 12,-12Z" style="fill-rule:nonzero;"/>
            </g>
            <g transform="matrix(1,0,0,-1,680.38,768.63)">
                <path d="M0,-198.17C-4.031,-197.869 -8.246,-196.931 -11.504,-194.412C-13.477,-192.889 -14.953,-190.834 -16,-188.592C-17.07,-186.299 -17.418,-183.853 -17.738,-181.369C-18.133,-178.314 -18.305,-175.213 -18.562,-172.142C-19.023,-166.713 -19.391,-161.267 -19.902,-155.842C-22.008,-133.474 -24.469,-111.115 -25.895,-88.689C-26.105,-85.342 -26.322,-81.994 -26.532,-78.646C-27.081,-71.595 -27.635,-64.541 -28.219,-57.494C-28.652,-52.256 -29.145,-47.025 -29.406,-41.775C-29.691,-36.029 -29.715,-30.291 -29.293,-24.553C-28.856,-18.627 -28.027,-12.521 -24.922,-7.345C-21.562,-1.744 -14.195,0.295 -8.504,-3.041C-2.914,-6.314 -0.832,-13.849 -4.199,-19.459C-4.271,-19.573 -4.34,-19.689 -4.408,-19.805C-4.517,-20.201 -4.618,-20.597 -4.713,-20.997C-5.051,-22.99 -5.285,-24.993 -5.45,-27.006C-5.752,-32.638 -5.588,-38.255 -5.298,-43.881C-4.6,-52.346 -3.901,-60.81 -3.234,-69.279C-2.581,-77.571 -2.062,-85.87 -1.543,-94.17C0.385,-116.289 2.743,-138.371 4.516,-160.506C4.75,-163.404 5,-166.306 5.246,-169.209C5.393,-170.949 5.521,-172.699 5.674,-174.447C8.479,-174.516 11.279,-174.483 14.089,-174.329C21.666,-173.752 29.13,-172.507 36.578,-171.006C42.842,-169.701 49.072,-168.223 55.309,-166.81C61.199,-165.478 67.168,-164.435 73.094,-163.267C83.871,-161.142 94.731,-159.373 105.551,-157.459C113.629,-156.029 121.703,-154.556 129.789,-153.162C134.549,-152.338 139.328,-151.626 144.107,-150.923C140.412,-146.176 136.339,-141.7 132.378,-137.188C128.753,-133.299 125.133,-129.402 121.512,-125.513C119.801,-123.677 117.824,-122.033 116,-120.314C114.147,-118.568 112.297,-116.822 110.447,-115.076C106.794,-111.937 103.158,-108.772 99.461,-105.681C95.09,-102.033 90.641,-98.459 86.367,-94.693C86.75,-95.033 87.133,-95.369 87.52,-95.709C83.385,-92.077 79.253,-88.449 75.125,-84.814C75.312,-84.978 75.499,-85.143 75.688,-85.306C71.513,-81.651 67.39,-77.928 63.243,-74.236C59.712,-71.141 56.233,-67.976 52.602,-64.998C47.895,-61.142 43.18,-57.31 38.383,-53.564C29.918,-46.955 21.269,-40.568 12.93,-33.806C10.609,-31.924 8.418,-29.842 6.207,-27.83C1.367,-23.428 1.746,-15.318 6.207,-10.857C8.445,-8.619 11.527,-7.345 14.691,-7.345C17.969,-7.345 20.793,-8.689 23.176,-10.857C24.216,-11.803 25.265,-12.743 26.315,-13.678C30.082,-16.93 34.059,-19.945 38.012,-22.971C42.219,-26.193 46.438,-29.4 50.613,-32.662C55.344,-36.361 60.039,-40.076 64.68,-43.881C69.137,-47.529 73.445,-51.338 77.781,-55.127C82.281,-59.061 86.72,-63.066 91.184,-67.04C91.306,-67.147 91.428,-67.254 91.551,-67.361C91.521,-67.335 91.491,-67.309 91.461,-67.283C95.435,-70.773 99.409,-74.267 103.379,-77.763C102.996,-77.424 102.613,-77.088 102.227,-76.748C106.137,-80.178 110.254,-83.369 114.203,-86.752C116.586,-88.791 118.973,-90.83 121.355,-92.869C123.355,-94.576 125.426,-96.228 127.34,-98.033C129.809,-100.361 132.277,-102.689 134.746,-105.017C136.199,-106.388 137.711,-107.717 139.074,-109.181C143.082,-113.482 147.191,-117.713 151.047,-122.15C156.426,-128.342 162.082,-134.392 166.711,-141.181C168.996,-144.533 171.238,-147.943 172.426,-151.861C173.035,-153.869 173.336,-155.853 173.398,-157.947C173.481,-160.873 172.371,-164.224 170.5,-166.486C169.078,-168.201 167.508,-169.721 165.57,-170.853C163.563,-172.033 161.348,-172.58 159.07,-172.947C156.688,-173.326 154.309,-173.709 151.926,-174.056C141.531,-175.572 131.172,-177.201 120.836,-179.072C111.121,-180.83 101.402,-182.549 91.684,-184.275C81.781,-186.033 71.919,-187.921 62.058,-189.87C56.446,-191.135 50.838,-192.41 45.223,-193.678C33.034,-196.43 20.574,-198.465 8.068,-198.465C5.38,-198.465 2.691,-198.371 0,-198.17Z" style="fill-rule:nonzero;"/>
            </g>
            <g transform="matrix(1,0,0,-1,366.247,767.549)">
                <path d="M0,-134.426C-2.57,-134.184 -4.914,-133.18 -7.184,-132.04C-8.078,-131.591 -8.906,-130.911 -9.668,-130.266C-10.586,-129.489 -11.648,-128.544 -12.348,-127.551C-13.695,-125.626 -14.789,-123.696 -15.273,-121.372C-15.953,-118.126 -15.926,-114.841 -15.93,-111.54C-15.938,-108.587 -15.934,-105.637 -15.926,-102.688C-15.906,-92.114 -15.867,-81.544 -15.727,-70.973C-15.637,-64.165 -15.473,-57.372 -15.258,-50.563C-15.094,-45.294 -14.891,-40.024 -14.418,-34.77C-14.238,-32.755 -13.902,-30.758 -13.625,-28.755C-13.316,-26.497 -12.867,-24.161 -11.977,-22.051C-9.652,-16.52 -4.746,-12.051 1.527,-12.051C2.374,-12.051 3.203,-12.143 4.004,-12.317C4.063,-11.586 4.191,-10.848 4.394,-10.11C6.094,-3.934 12.898,0.175 19.152,-1.727C21.665,-2.492 24.228,-3.028 26.795,-3.564C28.516,-3.913 30.236,-4.262 31.957,-4.614C31.625,-4.547 31.294,-4.478 30.961,-4.409C32.834,-4.792 34.704,-5.172 36.574,-5.554C36.476,-5.534 36.377,-5.514 36.277,-5.493C57.547,-9.829 78.941,-13.7 99.984,-19.051C106.481,-20.704 113.012,-22.27 119.469,-24.075C135.105,-28.442 150.453,-33.704 164.961,-41.071C168.254,-42.743 171.426,-44.469 174.484,-46.548C178.379,-49.196 181.457,-52.481 182.68,-57.149C183.398,-59.891 183.238,-63.016 182.133,-65.637C181.148,-67.962 179.496,-69.86 177.516,-71.383C175.289,-73.094 172.672,-74.153 170.098,-75.219C164.957,-77.344 159.75,-79.337 154.477,-81.11C144.477,-84.469 134.305,-87.305 124.18,-90.274C114.367,-93.155 104.618,-96.191 94.866,-99.274C89.832,-101.122 84.797,-102.964 79.762,-104.805C77.559,-105.614 75.402,-106.59 73.231,-107.477C70.152,-108.739 67.074,-109.997 64,-111.258C53.707,-115.473 43.539,-119.993 33.348,-124.446C28.098,-126.743 22.988,-129.298 17.641,-131.372C13.961,-132.798 10.242,-134.122 6.285,-134.477C5.342,-134.562 4.417,-134.602 3.495,-134.602C2.337,-134.602 1.182,-134.539 0,-134.426ZM8.191,-76.962C8.055,-87.555 8.047,-98.157 8.066,-108.751C8.066,-108.953 8.066,-109.154 8.066,-109.356C10.771,-108.324 13.442,-107.213 16.07,-105.997C18.52,-104.864 20.938,-103.673 23.406,-102.594C26.492,-101.247 29.574,-99.899 32.656,-98.551C37.641,-96.376 42.645,-94.239 47.652,-92.114C57.516,-87.923 67.402,-83.797 77.469,-80.11C82.918,-78.114 88.348,-76.173 93.883,-74.423C99.238,-72.727 104.594,-71.055 109.977,-69.454C115.582,-67.794 121.184,-66.133 126.793,-64.481C128.852,-63.876 130.914,-63.266 132.977,-62.665C135.848,-61.829 138.773,-61.098 141.609,-60.149C143.094,-59.651 144.578,-59.15 146.063,-58.65C141.112,-56.458 136.069,-54.459 130.979,-52.654C117.779,-48.161 104.228,-44.895 90.727,-41.465C83.255,-39.564 75.699,-38.016 68.169,-36.364C55.887,-33.886 43.598,-31.437 31.32,-28.926C31.404,-28.944 31.489,-28.962 31.573,-28.979C29.965,-28.651 28.356,-28.323 26.747,-27.995C26.832,-28.012 26.916,-28.03 27,-28.048C22.491,-27.128 17.908,-26.363 13.482,-25.081C13.234,-27.894 11.98,-30.454 10.089,-32.392C9.694,-34.949 9.394,-37.522 9.194,-40.103C8.456,-52.37 8.352,-64.673 8.191,-76.962Z" style="fill-rule:nonzero;"/>
            </g>
            <g transform="matrix(1,0,0,-1,402.171,1097.78)">
                <path d="M0,-157.437C-3.867,-156.609 -7.691,-154.93 -11.09,-152.937C-14.832,-150.746 -18.191,-147.586 -20.66,-144.031C-28.148,-133.25 -27.25,-119.598 -27.168,-107.086C-27.102,-96.64 -27.106,-86.187 -26.836,-75.746C-26.833,-75.633 -26.83,-75.521 -26.827,-75.408C-27.315,-75.274 -27.799,-75.107 -28.273,-74.906C-34.332,-72.348 -37.152,-65.226 -34.66,-59.18C-31.951,-52.602 -29.271,-46.012 -26.609,-39.418C-27.973,-35.235 -27.018,-30.405 -23.742,-27.129C-23.738,-27.125 -23.731,-27.121 -23.727,-27.113C-22.68,-26.069 -21.453,-25.238 -20.123,-24.648C-19.014,-22.206 -17.875,-19.782 -16.551,-17.441C-12.648,-10.555 -6.074,-4.469 1.453,-1.816C9.555,1.039 18.973,-0.058 26.379,-4.359C29.656,-6.262 32.469,-8.969 35.055,-11.703C38.012,-14.836 40.492,-18.383 42.531,-22.172C46.402,-29.359 48.168,-37.66 49.633,-45.625C51.852,-57.652 52.473,-69.976 52.125,-82.184C51.816,-92.855 51.324,-103.453 49.641,-114.016C48.34,-122.203 45.93,-130.269 41.859,-137.523C37.965,-144.465 32.02,-150.449 25.039,-154.269C21.438,-156.242 17.613,-157.496 13.563,-158.129C12.024,-158.369 10.479,-158.477 8.936,-158.477C5.934,-158.477 2.939,-158.07 0,-157.437ZM9.419,-134.438C9.936,-134.383 10.449,-134.315 10.962,-134.233C11.251,-134.156 11.538,-134.075 11.824,-133.989C12.242,-133.821 12.655,-133.645 13.067,-133.459C13.715,-133.106 14.349,-132.733 14.973,-132.339C15.516,-131.941 16.045,-131.53 16.566,-131.105C17.19,-130.516 17.792,-129.908 18.375,-129.28C19.018,-128.5 19.632,-127.701 20.222,-126.879C20.75,-126.052 21.246,-125.212 21.716,-124.351C22.399,-122.902 23.007,-121.426 23.567,-119.923C24.272,-117.794 24.883,-115.65 25.378,-113.46C26.508,-107.59 27.186,-101.637 27.615,-95.678C28.25,-85.603 28.501,-75.434 27.893,-65.354C27.428,-59.19 26.667,-53.07 25.498,-47C24.742,-43.457 23.845,-39.93 22.714,-36.486C22.423,-35.723 22.112,-34.972 21.773,-34.23C21.193,-33.15 20.578,-32.094 19.92,-31.058C19.351,-30.265 18.76,-29.495 18.14,-28.745C17.228,-27.765 16.289,-26.817 15.308,-25.909C14.966,-25.633 14.622,-25.364 14.271,-25.101C14.091,-24.992 13.908,-24.885 13.725,-24.781C13.7,-24.771 13.676,-24.761 13.651,-24.751C13.27,-24.638 12.888,-24.533 12.503,-24.433C12.044,-24.359 11.585,-24.296 11.123,-24.244C10.783,-24.24 10.444,-24.242 10.105,-24.249C10.023,-24.26 9.94,-24.271 9.858,-24.283C9.642,-24.37 9.428,-24.461 9.214,-24.555C8.894,-24.736 8.579,-24.922 8.265,-25.115C7.775,-25.476 7.297,-25.848 6.827,-26.234C6.422,-26.621 6.027,-27.015 5.642,-27.42C5.377,-27.753 5.119,-28.091 4.867,-28.435C4.301,-29.334 3.777,-30.255 3.276,-31.198C2.139,-33.559 1.111,-35.97 0.012,-38.348C-0.784,-40.068 -1.56,-41.793 -2.313,-43.529C-2.277,-44.831 -2.271,-46.131 -2.266,-47.433C-2.25,-50 -2.188,-52.566 -2.266,-55.133C-2.445,-61.187 -2.613,-67.238 -2.77,-73.293C-3.059,-84.418 -3.094,-95.551 -3.164,-106.676C-3.198,-111.877 -3.301,-117.074 -3.006,-122.268C-2.898,-123.638 -2.757,-124.999 -2.532,-126.356C-2.371,-126.973 -2.197,-127.583 -2.007,-128.19C-1.802,-128.712 -1.585,-129.225 -1.353,-129.733C-1.293,-129.838 -1.232,-129.942 -1.17,-130.045C-0.987,-130.291 -0.8,-130.533 -0.609,-130.772C-0.354,-131.034 -0.096,-131.29 0.167,-131.543C0.43,-131.754 0.695,-131.961 0.964,-132.164C1.304,-132.37 1.646,-132.57 1.992,-132.764C2.714,-133.094 3.445,-133.397 4.187,-133.679C4.895,-133.897 5.604,-134.094 6.321,-134.269C6.751,-134.336 7.178,-134.394 7.609,-134.442C8.213,-134.456 8.815,-134.455 9.419,-134.438Z" style="fill-rule:nonzero;"/>
            </g>
            <g transform="matrix(1,0,0,-1,535.897,1116.38)">
                <path d="M0,-152.345C-4.242,-151.536 -8.313,-150.247 -12.258,-148.485C-19.516,-145.243 -26.09,-140.559 -31.531,-134.77C-37.313,-128.618 -41.188,-121.216 -43.738,-113.208C-46.258,-105.29 -46.609,-96.997 -46.102,-88.77C-45.59,-80.481 -44.336,-72.333 -42.578,-64.22C-41.789,-60.579 -40.719,-57.024 -39.695,-53.446C-38.871,-50.552 -37.996,-47.712 -37.004,-44.868C-35.914,-41.743 -34.949,-38.528 -33.711,-35.454C-32.371,-32.134 -31.031,-28.813 -29.691,-25.493C-28.52,-22.587 -27.195,-19.739 -25.727,-16.974C-23.492,-12.747 -20.035,-9.118 -16.648,-5.798C-12.056,-1.301 -4.594,-1.146 0.085,-5.565C0.621,-4.983 1.192,-4.433 1.828,-3.942C3.457,-2.688 5.211,-1.7 7.109,-0.915C11.988,1.097 17.508,0.702 22.074,-1.919C25.293,-3.767 28.207,-6.102 30.969,-8.563C33.848,-11.122 36.625,-13.825 39.262,-16.63C44.695,-22.415 49.508,-28.817 53.324,-35.782C57.375,-43.165 59.781,-51.423 60.852,-59.751C61.898,-67.888 61.703,-76.286 61.191,-84.454C60.695,-92.407 59.887,-100.427 58.527,-108.282C57.156,-116.2 54.602,-123.845 50.602,-130.829C46.75,-137.556 41.117,-143.661 34.461,-147.657C31.242,-149.595 27.57,-150.86 23.941,-151.767C19.883,-152.782 15.715,-153.294 11.539,-153.423C11.139,-153.435 10.738,-153.441 10.337,-153.441C6.876,-153.441 3.382,-152.989 0,-152.345ZM12.438,-129.387C13.94,-129.24 15.43,-129.032 16.916,-128.766C17.991,-128.52 19.054,-128.238 20.109,-127.913C20.699,-127.688 21.281,-127.448 21.858,-127.192C22.26,-126.971 22.656,-126.741 23.048,-126.5C23.515,-126.153 23.97,-125.797 24.419,-125.427C25.122,-124.767 25.798,-124.087 26.456,-123.382C27.354,-122.319 28.208,-121.222 29.023,-120.091C29.668,-119.079 30.269,-118.044 30.836,-116.984C31.606,-115.362 32.295,-113.712 32.921,-112.029C33.562,-110.069 34.099,-108.09 34.548,-106.076C35.224,-102.467 35.677,-98.829 36.102,-95.181C36.541,-91.389 36.95,-87.6 37.232,-83.793C37.585,-77.855 37.671,-71.891 37.352,-65.949C37.163,-63.647 36.872,-61.369 36.453,-59.095C35.973,-56.957 35.396,-54.853 34.712,-52.772C34.183,-51.359 33.608,-49.974 32.97,-48.608C31.802,-46.39 30.503,-44.254 29.135,-42.154C27.291,-39.503 25.269,-36.996 23.156,-34.554C20.413,-31.522 17.466,-28.667 14.433,-25.927C14.073,-26.406 13.717,-26.888 13.365,-27.373C13.274,-27.524 13.184,-27.676 13.096,-27.829C13.081,-27.863 13.066,-27.897 13.051,-27.93C11.719,-30.778 9.594,-33.075 6.664,-34.317C3.703,-35.567 0.281,-35.567 -2.68,-34.317C-4.048,-33.739 -5.276,-32.895 -6.32,-31.867C-8.223,-36.112 -9.859,-40.489 -11.598,-44.798C-12.316,-46.587 -12.883,-48.458 -13.516,-50.278C-14.085,-51.908 -14.657,-53.537 -15.225,-55.167C-16.852,-60.879 -18.559,-66.54 -19.803,-72.345C-20.859,-77.756 -21.68,-83.214 -22.098,-88.712C-22.287,-91.812 -22.431,-94.903 -22.296,-98.007C-22.129,-99.681 -21.892,-101.342 -21.591,-102.999C-21.23,-104.589 -20.806,-106.156 -20.305,-107.71C-19.756,-109.166 -19.153,-110.594 -18.488,-112C-17.947,-113.008 -17.378,-113.992 -16.769,-114.96C-16.103,-115.893 -15.403,-116.794 -14.666,-117.674C-13.624,-118.796 -12.541,-119.866 -11.409,-120.898C-10.372,-121.766 -9.306,-122.59 -8.204,-123.377C-6.802,-124.285 -5.366,-125.126 -3.889,-125.908C-2.491,-126.572 -1.073,-127.18 0.378,-127.726C1.535,-128.093 2.699,-128.409 3.881,-128.68C5.544,-128.98 7.211,-129.213 8.892,-129.372C10.075,-129.423 11.253,-129.43 12.438,-129.387Z" style="fill-rule:nonzero;"/>
            </g>
        </g>
    </g>
</svg>
